# xmcd
#
# Track frame offsets: 
#        150
#        47365
#        90217
#        128827
#        154220
#        179317
#        200612
#
# Disc length: 2951 seconds
#
# Revision: 2
# Processed by: cddbd v1.5.1PL0 Copyright (c) Steve Scherf et al.
# Submitted via: ExactAudioCopy v0.95a2
#
DISCID=4f0b8507
DTITLE=Mighty Joe Young - Bluesy Josephine
DYEAR=1993
DGENRE=Blues
TTITLE0=Teasing The Blues
TTITLE1=Five Long Years
TTITLE2=Sweet Home Chicago
TTITLE3=Wisefool Express
TTITLE4=Takes Money
TTITLE5=Fool's Advice
TTITLE6=Need A Friend
EXTD=
EXTT0=
EXTT1=
EXTT2=
EXTT3=
EXTT4=
EXTT5=
EXTT6=
PLAYORDER=
